<svg height="34" width="164" xmlns="http://www.w3.org/2000/svg"><g fill="red"><path d="M44.863 25.21c1.64 0 3.024-.82 3.739-2.12h.07V25h2.918v-8.543c0-2.496-2.004-4.137-5.11-4.137-3.152 0-5.062 1.653-5.238 3.856l-.012.14h2.708l.023-.105c.187-.914 1.031-1.559 2.414-1.559 1.477 0 2.297.762 2.297 2.016v.855l-3.246.2c-3.012.187-4.723 1.511-4.723 3.714v.024c0 2.215 1.676 3.75 4.16 3.75zm.867-2.226c-1.277 0-2.12-.62-2.12-1.64v-.012c0-.984.785-1.605 2.226-1.7l2.836-.175v.938c0 1.476-1.266 2.59-2.942 2.59zm11.122 6.118v-6.2h.058c.703 1.453 2.121 2.344 3.89 2.344 3.118 0 5.11-2.46 5.11-6.445v-.012c0-4.008-1.992-6.469-5.144-6.469-1.782 0-3.141.914-3.856 2.403h-.058v-2.145h-2.918v16.524zm3.046-6.317c-1.804 0-3.07-1.558-3.07-3.984v-.012c0-2.437 1.266-4.008 3.07-4.008 1.864 0 3.036 1.524 3.036 4.008v.012c0 2.449-1.172 3.984-3.036 3.984zm10.805 6.317v-6.2h.059c.703 1.453 2.12 2.344 3.89 2.344 3.118 0 5.11-2.46 5.11-6.445v-.012c0-4.008-1.992-6.469-5.145-6.469-1.781 0-3.14.914-3.855 2.403h-.059v-2.145h-2.918v16.524zm3.047-6.317c-1.805 0-3.07-1.558-3.07-3.984v-.012c0-2.437 1.265-4.008 3.07-4.008 1.863 0 3.035 1.524 3.035 4.008v.012c0 2.449-1.172 3.984-3.035 3.984zm12.738 2.461c3.047 0 5.215-1.57 5.215-3.914v-.012c0-1.804-.996-2.812-3.562-3.386l-2.075-.457c-1.289-.293-1.77-.762-1.77-1.477v-.012c0-.914.81-1.511 2.099-1.511 1.359 0 2.156.726 2.285 1.722l.011.094h2.72l-.013-.129c-.105-2.144-1.91-3.844-5.003-3.844-3 0-4.98 1.535-4.98 3.809v.012c0 1.84 1.194 3 3.573 3.527l2.063.457c1.289.293 1.722.715 1.722 1.465v.012c0 .914-.855 1.488-2.273 1.488-1.477 0-2.285-.633-2.508-1.7l-.023-.105h-2.871l.011.106c.258 2.308 2.121 3.855 5.38 3.855z" fill="#fff"/><path d="M98.172 25.246c.586 0 1.101-.059 1.441-.105v-2.192c-.199.012-.422.047-.703.047-1.066 0-1.605-.387-1.605-1.605v-6.563h2.308v-2.25h-2.308V9.426H94.34v3.152h-1.758v2.25h1.758v6.809c0 2.554 1.23 3.61 3.832 3.61zm8.695 0c3.645 0 6.012-2.426 6.012-6.457v-.023c0-4.008-2.402-6.446-6.024-6.446-3.609 0-6 2.461-6 6.446v.023c0 4.02 2.356 6.457 6.012 6.457zm.012-2.355c-1.863 0-3.047-1.489-3.047-4.102v-.023c0-2.579 1.207-4.079 3.023-4.079 1.852 0 3.047 1.489 3.047 4.079v.023c0 2.602-1.183 4.102-3.023 4.102zM117.672 25v-7.207c0-1.84.996-2.883 2.648-2.883.493 0 .938.07 1.184.164v-2.637a3.801 3.801 0 00-.926-.117c-1.43 0-2.46.903-2.848 2.403h-.058v-2.145h-2.918V25zm8.25 0v-7.207c0-1.84.996-2.883 2.648-2.883.493 0 .938.07 1.184.164v-2.637a3.801 3.801 0 00-.926-.117c-1.43 0-2.46.903-2.848 2.403h-.058v-2.145h-2.918V25zm10.324.246c3.246 0 5.074-1.922 5.461-3.832l.035-.129h-2.73l-.024.082c-.281.832-1.23 1.606-2.683 1.606-1.899 0-3.094-1.29-3.14-3.47h8.694v-.937c0-3.75-2.203-6.246-5.754-6.246-3.55 0-5.835 2.578-5.835 6.492v.012c0 3.95 2.25 6.422 5.976 6.422zm2.777-7.687H133.2c.235-1.91 1.395-2.954 2.942-2.954s2.672.985 2.882 2.954zm7.63 7.441v-7.207c0-1.793 1.066-3.012 2.742-3.012 1.664 0 2.484.996 2.484 2.766V25h2.918v-8.04c0-2.882-1.559-4.64-4.29-4.64-1.886 0-3.152.867-3.796 2.203h-.059v-1.945h-2.918V25zm15.093.246c.586 0 1.102-.059 1.441-.105v-2.192c-.199.012-.421.047-.703.047-1.066 0-1.605-.387-1.605-1.605v-6.563h2.309v-2.25h-2.31V9.426h-2.964v3.152h-1.758v2.25h1.758v6.809c0 2.554 1.23 3.61 3.832 3.61z" fill="#8e8e8e"/><path d="M1.846 27.846c.695 0 1.3.384 1.616.952l.924-.925a7.464 7.464 0 001.636 1.358l.31.178-.79.792a2 2 0 11-2.737 1.067 1.846 1.846 0 11-.959-3.422zm28.308 0a1.846 1.846 0 11-.796 3.512 1.846 1.846 0 11-2.56-.82l-1.13-1.128a7.413 7.413 0 001.7-1.278l.246-.258.924.925c.315-.568.92-.953 1.616-.953zM16 4c6.667 0 12 5.4 12 12.15 0 1.91-.115 3.03-1.333 5.4 1.333 2.7-.923 5.975-5.334 5.4C20 28.3 20.027 31 18.667 31h-5.334c-1.36 0-1.333-2.7-2.666-4.05-3.077.575-6.667-2.7-5.334-5.4C4.553 19.939 4 18.06 4 16.15 4 9.4 9.333 4 16 4zm0 20.25c-.736 0-1.333.605-1.333 1.35s2.666.745 2.666 0-.597-1.35-1.333-1.35zm-4.667-8.1C9.492 16.15 8 17.66 8 19.525S9.492 22.9 11.333 22.9c1.842 0 3.334-1.51 3.334-3.375s-1.492-3.375-3.334-3.375zm10 1.35c-1.473 0-2.666 1.209-2.666 2.7s1.193 2.7 2.666 2.7c1.473 0 2.667-1.209 2.667-2.7s-1.194-2.7-2.667-2.7zM27.897 2a1.846 1.846 0 011.675 2.624l-.053.101a1.999 1.999 0 11-1.317 2.818l-.392.395a15.137 15.137 0 00-1.283-1.5l-.351-.347.703-.705a1.845 1.845 0 01-.58-2.463c.33-.571.939-.923 1.598-.923zM4.307 2A1.846 1.846 0 015.2 5.462l.628.627c-.477.454-.92.94-1.332 1.454l-.303.39L3.46 7.2l-.015.03c-.302.524-.84.864-1.435.917l-.164.007a1.846 1.846 0 11.8-3.51A1.846 1.846 0 014.308 2z" fill="#fff"/></g></svg>