<svg width="24" height="24" fill="none" xmlns="http://www.w3.org/2000/svg"><path d="M6.024 6.5C9.914 5.244 19.384 5.766 20 7c1 2 .789 6.988-1 8.587-1.788 1.6-9.17 1.751-11.63 0-2.599-1.85-1.241-6.895-1.326-10.344C6.095 3.313 4 3 4 3m9.5 7h2.773" stroke="#fff" stroke-width="1.5" stroke-linecap="round" stroke-linejoin="round"/><path fill-rule="evenodd" clip-rule="evenodd" d="M7.764 19.627a.545.545 0 11-.001 1.09.545.545 0 01.001-1.09zm10.331 0a.545.545 0 110 1.09.545.545 0 010-1.09z" fill="#fff" stroke="#fff" stroke-width="1.5" stroke-linecap="round" stroke-linejoin="round"/></svg>