<svg height="20" width="20" xmlns="http://www.w3.org/2000/svg"><path d="M10 0C4.483 0 0 4.483 0 10s4.483 10 10 10 10-4.483 10-10S15.517 0 10 0zm0 1.265c1.648 0 3.187.45 4.501 1.241.01.006.015.018.025.024l.048.05c.015.017.021.011.049.023a.21.21 0 00.049.098c.009.009.012.03.024.048.018.025.042.052.316.195-.033-.015-.073-.003-.097.024-.012.016-.024.03-.024.049l-.098-.049c-.04-.015-.058-.03-.097-.048-.006-.003-.018.003-.024 0l-.17-.025c-.013-.003-.037-.006-.05 0-.006.003-.018-.003-.024 0l-.097-.024-.097-.049c-.007-.003-.043-.024-.05-.024l-.145-.024h-.122c-.015 0-.036.018-.048.024-.016.01-.019.01-.025.024l-.024.049-.073.024a.078.078 0 00-.049.025.242.242 0 00-.024.048l-.024.025a.105.105 0 00-.025.048l-.024.049a.146.146 0 00-.024.049.034.034 0 000 .024v.049l-.025.292c0 .006-.003.015 0 .024-.006.003-.018.018-.024.024l-.146.22c-.021.024-.043.045-.024.072l.243.365.024.073c.006.012.016.015.025.025.054.045.13.06.194.073.01 0 .015-.003.025 0v.12a.106.106 0 00.024.073l.049.073c.003.01.018.015.024.025l-.122.048c-.009.003-.015-.006-.024 0l-.024.025-.049.073c-.015 0-.033.012-.049.024l-.048.049c-.006.006-.022.018-.025.024-.003.003.003.021 0 .024l-.024.049V4.89c-.006-.037-.003-.037-.438-.438v-.145l-.024-.025c-.003-.006.003-.018 0-.024-.019-.03-.028-.03-.17-.097v-.05c-.022-.039-.07-.045-.122-.048h-.098c-.076.006-.082.019-.146.34 0 .013-.006.04 0 .05.003.006-.003.018 0 .024-.006 0-.042.021-.048.024a.083.083 0 00-.049.025c-.006.003-.018-.003-.024 0-.01.006-.003.015-.025.024-.006.003-.02-.003-.024 0-.046 0-.082.03-.146.097-.012.018-.006.052 0 .073l.024.098c.01.024.019.027.05.048l-.025.025c-.006.009.003.015 0 .024l-.025.121a.159.159 0 00.025.098c.015.018.045.033.097.024l.22-.049c.005-.003.02.004.023 0l.17-.073c.004-.003.022.004.025 0 .003.004-.003.022 0 .025h-.024c-.006.006-.019.015-.025.024-.003.003.003.018 0 .024l-.048.098a.142.142 0 00.024.097.137.137 0 00.097.049h.073l-.024.073c-.003.009 0 .015 0 .024v.024c.006.03-.006.067 0 .098a.62.62 0 00.049.073c.015.015.027.024.048.024.049.003.082 0 .122 0l.17.122-.024.048v.05l.024.096c-.07-.012-.082-.036-.365-.073-.024-.006-.048-.006-.146-.024-.012-.003-.015-.003-.024 0l-.049.024a.077.077 0 00-.048.05c-.006.008.006.011 0 .023h-.049c-.018.003-.036.034-.049.05-.003.002-.018-.007-.024 0a.106.106 0 00-.024.072c.015.097.033.24.048.34l-.048.268v.025c.003.009-.003.024 0 .048.003.019.009.037.024.049l.049.049.073.194c.018.049.07.082.121.073l.146-.024.073.049-.486.413c-.01.006-.022.04-.025.049l-.073.34-.34.22-.146.073a.125.125 0 00-.049.048c-.064.143-.176.31-.267.462-.04.067-.058.125-.098.195l-.194.39c-.007.012-.004.036 0 .048.003.046 0 .049 0 .073 0 .012-.007.04 0 .049 0 .003.02.021.024.024l.049.073.048.365-.243.462c-.015.028 0 .073.024.098l.098.097c0 .046.003.097 0 .146-.004.009 0 .015 0 .024v.025c0 .015-.01.036 0 .048l.073.122.121.122.243.34c.007.01.019.018.025.025l.146.121.097.146c.003.003.021-.003.024 0l.05.024c.002.004-.004.022 0 .025l.023.024c.007.006.016-.003.025 0l.34.195.122.097c.012.01.01.021.024.024h.025a.443.443 0 00.17-.048l.243-.025h.39c.003 0 .02-.024.024-.024l.365-.024c.01.003.015.003.024 0h.049c.01-.003.018-.018.024-.025l.146-.073h.146l.098-.024.073.22c.012.033.063.054.097.048h.268l.097.146.024.048-.219.438c-.009.019-.009.03 0 .049l.195.462.024.098v.121c0 .012.018.016.025.025.003.012.02.036.024.048.006.012-.003.03 0 .049l.024.049-.048.146-.098.535-.17.146-.073.195-.049.024c-.006.003-.042.018-.048.024-.013.01-.019.012-.025.025-.042.103-.085.2-.121.291-.003.01 0 .04 0 .05a.034.034 0 000 .023l.048.195c-.085.316-.182.657-.267.9-.003.003-.025.022-.025.025v.073l-.073.17a5.64 5.64 0 01-.097.195l-.073.073a.912.912 0 00-.122.194l-.024.049c-.012.018-.01.027 0 .049s.027.04.049.048a.343.343 0 00.121.025c.01 0 .015.003.025 0a.967.967 0 00.097-.049v-.024c.128-.025.295-.043.438-.073l.268-.122c.006-.003.02-.021.024-.024l.39-.268c.002-.003.02.003.023 0v-.024c.05-.034.165-.098.195-.122l.195-.219.097-.097.049-.025h.048c.01 0 .016.003.025 0 .042-.018.07-.07.097-.097l.243-.243c.006-.006.022-.018.025-.025l.146-.267.024-.025h.024c.013 0 .016-.018.025-.024a.242.242 0 00.097-.073l.049-.049c.11-.076.24-.185.316-.243h.024c-.012.015-.012.03-.024.049-.006.006-.021.042-.024.048l-.098.17-.194.171c-.016.018-.016.018-.268.39a.299.299 0 00-.024.121c-.003.03 0 .058.024.073A8.702 8.702 0 0110 18.735a8.91 8.91 0 01-1.217-.098c.01-.018.007-.054 0-.073.013.004.037.004.05 0s.014-.018.023-.024c.016-.012.046-.027.05-.049a.111.111 0 00-.025-.073l-.073-.073c-.015-.015-.012-.033-.098-.072-.009-.004-.015 0-.024 0-.012-.004-.036.018-.049.024-.015.006-.036-.006-.048 0-.03.018-.037.064-.025.097.004.015.013.024.025.049l-.122-.025c-.006-.003-.015-.02-.024-.024-.006-.003-.018 0-.025 0l-.024-.024c-.006-.006-.018-.021-.024-.025l-.097-.048-.098-.146c-.003-.003-.021-.024-.024-.024-.018-.019-.03-.028-.049-.05-.009-.008-.012-.017-.024-.023l-.097-.025c0-.018-.013-.033-.025-.048-.076-.089-.149-.183-.219-.268-.006-.01-.015-.021-.024-.024h-.024c.018-.025.04-.07.024-.098-.006-.012-.018-.018-.024-.024l.097-.073c.015-.012.021-.03.024-.049a.034.034 0 000-.024l-.024-.17c-.003-.016.012-.037 0-.05s-.037-.014-.049-.023a.149.149 0 00.049-.049c.006-.006.021-.015.024-.024l.025-.122.024-.024c.009-.01-.003-.013 0-.025l.049-.17a.363.363 0 00.024-.049c.003-.009 0-.015 0-.024v-.073c.021-.021.036-.07.024-.097l-.146-.39c.177-.097.393-.203.56-.292.021-.012.021-.024.024-.048l.024-.122c.028-.18.046-.395.073-.56a.034.034 0 000-.024l-.097-.462.049-.049.073-.024c.009-.003.015-.018.024-.024l.024-.025.292-.535a.363.363 0 00.025-.049c0-.009.003-.018 0-.024l-.098-.414a.081.081 0 00-.048-.048 40.79 40.79 0 00-.73-.365l-.024-.025-.609-.073-.194-.073-.244-.17c-.003-.003-.018-.021-.024-.024l-.049-.025a.078.078 0 000-.073c-.006-.012-.018-.04-.024-.048-.015-.019-.027-.03-.049-.025h-.024l-.17-.146-.22-.316c-.002-.012-.015-.015-.024-.024l-.024-.025c-.01-.009-.012-.02-.024-.024l-.365-.17-.122-.098c-.015-.012-.027-.003-.049 0l-.243.025-.243-.268.024-.024c.028-.012.046-.021.049-.049a.771.771 0 000-.146l.073-.073c.015-.015.024-.027.024-.048v-.05c0-.042-.033-.07-.073-.072-.1-.006-.185 0-.268 0v-.024c0-.016.007-.03-.024-.122.03-.018.049-.037.049-.073 0-.015-.003-.018-.049-.146-.003-.021-.006-.064-.024-.122.012-.006.015-.009.024-.024.024-.043.018-.067-.024-.195-.003-.006.003-.018 0-.024a.067.067 0 000-.049.113.113 0 00.073-.097c0-.015-.006-.012-.049-.146a.168.168 0 00-.073-.073.09.09 0 00-.024-.073c-.018-.021-.04-.046-.073-.049H4.89c-.01-.036-.05-.06-.098-.073a2.988 2.988 0 00-.219-.048c-.04-.006-.076-.022-.097-.025a.13.13 0 00-.049 0 .136.136 0 00-.073.049c-.03-.021-.045-.052-.073-.073l-.073-.049c-.015-.015-.051-.03-.073-.024-.033.003-.079.018-.097.049l-.219-.122-.097-.049c-.013-.009-.022-.018-.049-.024a.13.13 0 00-.049 0c.043-.012.07-.043.073-.073.006-.033-.006-.052-.073-.219-.018-.046-.054-.06-.097-.049-.018.007-.049.013-.073.05a1.45 1.45 0 00-.049.096l-.024.025c-.082-.058-.155-.11-.243-.17-.125-.086-.259-.192-.365-.268-.012-.01-.037 0-.049 0-.01 0-.018-.003-.024 0l-.22.048c-.005.003-.017-.003-.024 0-.04.016-.04.028-.146.268-.012-.012-.036-.018-.048-.024-.012-.003-.012-.028-.025-.025l-.365.073c-.03.003-.04.019-.048.05l-.098.291-.097.024-.097-.267.097-.536.073-.243.073-.122c.088-.136.183-.291.268-.413h.121l.17.17c.025.025.068.018.098 0 .07-.04.103-.125.122-.194l.219.073-.025.632c-.003.03 0 .061.025.073.067.034.112.024.146.024.018 0 .06-.012.073-.024h.024l.024.097c.01.028.03.061.098.073h.121c.046-.006.064-.033.073-.073.01-.027.012-.024-.024-.219-.012-.048-.049-.097-.097-.097h-.073l.073-.194c.018-.131.024-.262.048-.39l.195-.316h.024c.012 0 .012.006.025 0l.219-.146c.13-.091.273-.189.389-.268a.093.093 0 00.024-.024c.022-.03.022-.055.025-.073.018-.088.051-.158.073-.243.006.003.018-.006.024 0 .03.024.07.027.097 0l.317-.341c.006-.006.02.006.024 0l.049-.073.34-.049c.018-.003.061-.009.073-.024l.097-.097c.019-.022.01-.07 0-.098l.073-.097H5.4c.01 0 .019-.021.025-.024.003 0 .021.003.024 0l.243-.122v.073c-.006.021-.015.03 0 .049l.025.024c.021.024.07.037.097.024.125-.048.27-.09.414-.146l.146-.073a.146.146 0 00.048-.024l.025-.024h.097c.037-.003.043-.022.146-.098.01-.009.021-.015.024-.024.022-.046.006-.088-.024-.122l.024-.097a.111.111 0 00-.024-.073.149.149 0 00-.097-.049c-.046.004-.04.004-.268.244l-.049-.049a.864.864 0 00.025-.097c.018 0 .036-.012.048-.025l.098-.097c.018-.015.027-.073.024-.097a.093.093 0 00-.024-.049h.365a.092.092 0 00-.049.073c-.003.024-.012.03 0 .049l-.024.073a.134.134 0 000 .097c.02.046.018.034.243.073l.024.049c.01.012.04.045.098.048h.073c.02-.003.027-.009.048-.024.015.012.046.018.073.024h.073c.034-.006.043-.015.195-.121.009-.01.018-.018.024-.049.003-.018.022-.045.025-.073 0-.042-.016-.055-.05-.073V5.28c.01-.021.031-.055.025-.073-.012-.028-.036-.046-.097-.073l.122-.122c.03-.027.04-.058.024-.097a.085.085 0 00-.049-.049l.098-.121c.012-.019.006-.052 0-.073-.01-.025-.022-.043-.05-.05L7.47 4.6c.007-.007.022-.019.025-.025.021-.06.036-.128.049-.17.006-.034-.022-.08-.05-.097l-.023-.025.024-.073c.036-.23.07-.331.073-.34.006-.034-.021-.08-.049-.098.03-.012.03-.027.098-.146.006.003.018-.003.024 0 .006 0 .018.025.024.025h.049c.046-.003.052-.019.243-.22.015.01.037.025.049.025.04 0 .052-.003.365-.17.006-.003.021-.022.024-.025.015-.012.021-.03.024-.048.007-.04.004-.034-.17-.244l.097-.097c.028-.052.022-.076-.145-.316-.007-.01-.019.006-.025 0-.006-.006-.018-.022-.024-.025a.668.668 0 00.097-.097c.003-.003-.003-.021 0-.024.012.006.037.003.049 0a.613.613 0 00.219-.098c.018-.012.033-.04.048-.048h.025c.006 0 .018.003.024 0l.122-.025c.012-.006.036-.009.048-.024 0 .012.019.012.025.024-.006.019-.018.03-.025.05-.003.008 0 .039 0 .048s-.003.018 0 .024l.025.049c.006.018.033.04.048.048.013.007.034 0 .05 0 .072.003.139.003.194 0l.073.025v.048l-.049.146a.196.196 0 000 .073c.003.016.012.013.024.025a.1.1 0 000 .073.363.363 0 00.025.048v.025c.006.009.018.018.024.024h-.122c-.04.006-.024.003-.194.146-.01.01-.018.037-.025.049-.003.006-.024-.006-.024 0l-.024.17c-.003.012-.003.012 0 .024.006.016.04.037.048.049 0 .003-.024.021-.024.024h-.024c-.006.003-.018.022-.025.025-.009.009-.04.018-.048.048a.13.13 0 000 .049l.097.34c.003.016.012.013.024.025.016.012.037.018.05.024.008.003.014.025.023.025h.073l.05.073a.075.075 0 00.023.024.12.12 0 00.098.024l.17-.024c.01-.003.015-.018.024-.024l.122-.098c.11-.112.216-.258.316-.365l.244-.073c.006 0 .021-.021.024-.024l.049-.024.024.024c.006.003.018 0 .024 0 .04 0 .064-.024.195-.122l.243-.121.122.024a.034.034 0 00.024 0h.025c.149-.055.362-.137.51-.195.031 0 .061-.02.074-.048l.024-.049c.018-.036.033-.091.049-.122.006-.012.027-.009.024-.024a.075.075 0 00-.024-.049c.018-.012.02-.051.024-.073l.049-.243a.088.088 0 000-.049c.009-.018.009-.027 0-.048-.025-.052-.05-.125-.073-.17.015-.007.015-.01.024-.025l.049.024c.024.01.051-.006.073-.024l.048-.049c.015-.015.025-.027.025-.048V2.02c0-.015.009-.036 0-.048-.046-.064-.128-.082-.195-.098-.021-.006-.043.01-.073 0h-.024c-.028 0-.046-.009-.073 0-.004-.015-.013-.012-.025-.024-.015-.015-.033-.052-.048-.073-.016-.03-.034-.067-.073-.097-.067-.055-.143-.061-.22-.073a2.089 2.089 0 00-.413 0c-.049.003-.1.003-.146 0-.052-.003-.103-.006-.146 0-.027.003-.052.015-.073.024-.018-.009-.067-.006-.097 0-.089.021-.162.082-.244.146-.018.015-.054.034-.073.049-.012-.025-.045-.049-.073-.049-.073-.003-.076 0-.097-.024-.006-.01.003-.037 0-.049a.182.182 0 00-.146-.121h-.024c-.025 0-.055.018-.073.024.003 0 0-.021 0-.024 0-.037 0-.113-.122-.146-.015-.004-.03 0-.049 0-.018 0-.1-.007-.146.024-.042.027-.048.06-.048.073-.012.009-.006.018-.025.024-.015.006-.057.012-.073.025-.027.018-.051.051-.073.073-.02.024-.04.054-.073.048-.02-.009-.03-.009-.048 0-.061.028-.091.061-.098.097a.29.29 0 00-.073.122c-.012.01-.048.01-.073.024V1.85c-.009-.04-.063-.076-.097-.073-.033.003-.045.037-.073.073l-.146.073c-.006.003-.018.018-.024.024l-.122.146c-.018.022-.036.046-.024.073v.025c-.015-.022-.021-.03-.097-.049v-.024l.073-.098a.077.077 0 000-.073.09.09 0 00-.073-.048c-.034.003-.046-.015-.17.073-.007.003-.022.021-.025.024l-.049.122c-.009-.006-.015-.022-.024-.025.009-.015 0-.033 0-.048-.003-.04-.021-.058-.073-.098-.015-.009-.03-.006-.049 0-.015.004-.036-.003-.097.025-.046-.021-.103.009-.122.024-.015.015-.036.034-.048.049-.016-.03-.04-.052-.073-.049l-.268.024c-.003 0-.021-.003-.024 0l-.17.073c-.043.019-.052.028-.098.098h-.171c-.006 0-.019-.003-.025 0-.003 0-.02.024-.024.024l-.292.122c-.006.003-.018-.003-.024 0l-.17.121c-.028.019-.04.05-.05.073-.008.03 0 .055.025.073-.009.01-.018.013-.024.025l-.025-.049c-.006-.021-.027-.04-.048-.049-.003-.009.006-.015 0-.024-.018-.024-.067-.036-.098-.024h-.048A8.679 8.679 0 0110 1.265zm2.968.706l-.097.024c-.01.003-.015-.006-.024 0l-.049.024a.13.13 0 00-.049 0c-.02.004-.036.016-.048.025h-.122c-.03 0-.06-.003-.073.024-.006.012 0 .037 0 .049 0 .051.003.07.122.146.003.003.021-.003.024 0l.097.048c.019.01.055.003.073 0l.049.073c.024.03.021.05.243.122.01 0 .019.003.025 0 .024-.003.04-.027.048-.049.013-.02.034-.051.025-.073h.073c.027-.006.064-.02.073-.048a.096.096 0 00-.025-.098 1.008 1.008 0 00-.097-.048c.012-.034-.018-.055-.073-.146-.003-.006.006-.018 0-.025-.024-.02-.043-.018-.146-.048-.006-.003-.018 0-.024 0h-.025zm-5.596.973c.03.012.082.012.122.024l-.122.098c-.003.003.003.021 0 .024l-.073.073h-.146zm7.664 0c.01.003.04 0 .05 0s.014.003.023 0h.025c.015.01.033.015.048.024-.006.013-.024.013-.024.025v.048zm-7.956.243c-.012.01-.027.013-.048.025l-.025.024-.097.097c-.01.016-.049.055-.024.098l-.073-.025c-.006-.003-.019.003-.025 0l.025-.146a.034.034 0 000-.024zm4.185.025c-.024 0-.058.015-.219.048-.033.013-.04.019-.048.049-.01.027.003.08.024.097a.58.58 0 00.097.073l-.024.049c-.006.018-.01.055 0 .073.021.046.009.058.39.17.005.003.017 0 .024 0 .027 0 .027.01.437-.17.046-.03.055-.094.05-.122-.007-.021-.016-.042-.025-.073-.006-.012-.015-.015-.025-.024-.003-.003.004-.021 0-.024l-.17-.122a.224.224 0 00-.097-.024l-.292.048-.073-.024c-.012-.006-.037-.024-.049-.024zm-5.11.219h.147l-.025.024c-.006.04.037.064.073.073.049.015.07.024.098.024.009 0 .04-.021.048-.024h.073c-.054.052-.1.11-.146.17-.03.04-.07.092-.097.122l-.17.049c-.015.006-.015.009-.025.024l-.194.292-.365.122a.108.108 0 00-.049.048c-.006.012.006.012 0 .025H5.5l-.1-.17-.048-.195c-.006-.022-.028-.04-.049-.05.015-.011.021-.026.024-.048l.025-.048.243-.17c.085-.034.17-.083.268-.122l.219-.073c.009-.003.015-.019.024-.025l.024-.024c.016-.012.022-.006.025-.024zm1.023.024l.024.024-.024.025c-.049.079-.013.094.243.267l-.268.122.049-.073c.027-.027.027-.067 0-.097l-.17-.195c-.006-.003-.019-.021-.025-.024l-.073-.025c.046.022.073.003.244-.024zm7.518.584l.122.049c.015.006.033.03.048.024.015.049.028.064.049.097.003.01.018.018.024.025.01.006.015.018.025.024a.067.067 0 000 .049l.048.146c-.058-.016-.134.009-.194.024-.016.006-.034.021-.05.024-.005 0-.02-.003-.023 0l-.17.073V4.55a.068.068 0 00.048-.073v-.17l.024-.073.025-.17c.003-.01.024-.019.024-.025zm1.825 1.8c.006.01.015.016.024.025.161.146.155.146.195.146.015 0 .012.009.024 0 .015-.006.04-.012.049-.025.012-.018.04-.033.048-.048l.268.17.097.073-.097.024c-.11-.076-.116-.073-.146-.073-.01 0-.04-.003-.049 0-.051.019-.112.052-.17.073-.049.019-.1.034-.146.049h-.049l-.097-.097c-.003-.003.003-.019 0-.025.006-.012.024-.027.024-.048l-.024-.049a.105.105 0 00.024-.049c.006-.015 0-.033 0-.048zm-2.02.341c-.003.003.003.021 0 .024-.009.013.003.01 0 .025-.003.006-.009.024 0 .073.01.027.018.07.025.097.006.015.015.04.024.049a.128.128 0 000 .048v.049c.012.049.036.094.049.146.015.064.051.091.073.097a.13.13 0 00.048 0c.003 0 .021-.021.025-.024l.097-.024a.108.108 0 00.073-.098c0-.015.006-.024-.049-.194a.132.132 0 00-.073-.073c.006-.019.018-.022.025-.049l.121.122c.006.006.043.021.049.024l.267.146.05.024.023.073-.194-.048c-.015-.003-.058.018-.073.024-.03.015-.052.04-.049.073.003.024.018.064.024.097.004.012-.009.016 0 .025.055.07.143.121.22.17.009.006.018.018.024.024-.049.01-.073.043-.073.098l-.025-.098a.093.093 0 00-.024-.048l-.073-.049-.121-.073c-.019-.01-.03-.024-.05-.024-.008 0-.039-.003-.048 0l-.121.048-.706.049c-.006 0-.018-.003-.024 0l-.463.17h-.17c.006-.006-.003-.018 0-.024l.17-.024c.01 0 .019.003.025 0h.024c.01-.003.018-.019.024-.025l.146-.121.025-.025a.827.827 0 01.073-.073.112.112 0 00.024-.097l-.073-.17.024-.049.073-.024h.025c.009 0 .015.003.024 0 .003 0 .021-.025.024-.025l.073-.048c.025-.012.046-.025.049-.049l.024-.146v-.024l.22.048c.014 0 .036-.015.048-.024zm1.168.462h.024c.019 0 .037.01.05 0l.023.025c.007.009-.006.018 0 .024.007.006.013.015.025.024a.13.13 0 00.048.025l.098.121c.012.016.03.022.048.025.01.003.016-.003.025 0 0 .003-.003.02 0 .024.018.03.051.06.073.097l.024.049c.006.012.012.04.024.049h.025c.012.009.033.024.048.024h.073c-.003.01 0 .012 0 .024.006.019.003.01.049.098.027.045.021.057.34.121.092-.009.107-.085.098-.219l.024.025a.08.08 0 00.073.024l.146-.049c.012-.003.016.006.025 0h.024a.122.122 0 00-.024.049c-.006.036-.006.07.024.097.01.006.03.006.146.073.006.003-.006.022 0 .025h.024c.015.003.034-.019.049-.025.012-.006.015-.015.024-.024l.049-.049c.01.03.015.067.024.098l-.024.316-.195-.073c-.033-.01-.054.021-.073.049l-.073.073-.292-.122a.034.034 0 00-.024 0c-.046.003-.085 0-.122 0l-.024-.024c-.012-.019-.027-.046-.049-.05-.1-.014-.167 0-.243 0-.01 0-.015-.002-.024 0-.006.004-.022-.002-.025 0l-.073.05c-.018.012-.045.027-.048.048l-.025.146-.34-.194c-.003-.003-.022.003-.025 0l-.365-.098-.097-.048c.01-.016 0-.03 0-.05-.006-.075-.015-.13-.024-.194.009.028.033.043.048.073.01.015.016.049.025.073.027.049.06.046.073.049a.033.033 0 00.024 0c.049-.006.067-.024.146-.146.006-.01-.003-.015 0-.024.003-.013.003-.013 0-.025-.003-.018.01-.036 0-.048.037-.016.046-.055.049-.098v-.12c.021-.006.04-.028.048-.049l.073-.146a.078.078 0 000-.073zm.779.22c.012.015.042.02.048.024l.098.17c-.043-.003-.104-.021-.146-.024v-.025c.015-.015.024-.027.024-.048 0-.043-.018-.07-.024-.098zM2.31 9.245c.007.006.016.018.025.024v.024c-.01.03-.015.061 0 .146.012.037.018.03.048.05.019.011.052.005.073 0 .007-.004.019.002.025 0-.01.087.03.172.097.218.03.021.06.049.097.049.107 0 .18-.098.195-.22a.273.273 0 000-.12l.049.048c0 .015-.022.009-.025.024v.073c.006.043.037.08.073.097H2.92c-.012-.003-.015 0-.025 0-.036.01-.051.01-.121.098a.138.138 0 00-.025.097c.006.027.03.037.05.049.039.033.075.073.12.097l.05.024c.008.006.039-.003.048 0v.025c.01.003.015 0 .024 0 .006-.003.019-.022.025-.025l.146-.048a.129.129 0 00.048-.098V9.83c.037.024.119.036.341.073h.438c.018.027.058.045.097.048h.244a.14.14 0 00.073-.024c.015.012.03.03.048.049a.131.131 0 00.073.024c.006 0 .018.003.025 0l.048-.024V10c.006.04.034.082.073.097-.009.016-.021.028-.024.049 0 .049.024.097.024.146v.049c.01.057.049.088.073.097v.049c-.009.015-.024.027-.024.048 0 .043-.003.1 0 .146.003.03.024.055.049.073 0 .025-.004.049 0 .073a.173.173 0 00-.025.073c.003.034-.003.064 0 .098v.024a.12.12 0 00.098.097v.049l-.146-.122c-.007-.006-.019-.021-.025-.024l-.267-.049a.13.13 0 00-.05 0H4.38l-.05.025-.315-.073-.17-.22a.081.081 0 00-.025-.024h-.024c-.028-.015-.073-.024-.098 0l-.048.073-.049-.024c-.021-.012-.03-.037-.049-.049a.078.078 0 00-.073 0l-.365.195c-.006.003-.018.018-.024.024-.006.006-.021.015-.024.025l-.098.267-.121-.073c-.01-.006-.012-.021-.025-.024h-.048l-.22.049-.072-.146.024-.657c.003-.016 0-.034 0-.049s.006-.012 0-.024a1.477 1.477 0 00-.146-.195l-.024-.024a558.14 558.14 0 01-.025-.025c-.009-.006-.015-.021-.024-.024l-.195-.024v-.17zm.95.389v.024a.111.111 0 00-.025.073c-.012-.015-.033-.02-.049-.024-.054-.015-.106-.036-.17-.049zm14.94.196c.042.094.085.182.121.267v.195c-.009-.015-.03-.018-.048-.024l-.05-.317v-.024zm-16.935.34l.049.049c.024.024.067.04.097.024l.098-.073.073.195v.024c.003.01.018.019.024.025l.049.073c.003.006-.007.02 0 .024l.097.097.048.025.122.073.195.584c.003.003-.003.02 0 .024l.048.049c.022.024.067.04.098.024l.024-.024.073.097c.006.018.006.04.024.049.016.009.037.018.05.024.008.003.017-.003.023 0l.098.146c.018.027.064.04.097.024l.097-.048a.149.149 0 00.05-.05l.023.074c.03.213.08.42.122.632l-.024.146-.049.146-.049.317a.034.034 0 000 .024v.024c.019.073.028.15.049.22l.024.024c.003.012-.009.015 0 .024.006.006.03.01.049.024l-.024.025c-.01.015-.003.03 0 .048 0 .006.021.019.024.025l.146.34c.003.006-.006.019 0 .025l.316.267.146.22c.003.005.022.02.025.024.006.009 0 .024 0 .024.23.304.571.712.632.754l.438.22c.04.023.082.042.22.12l.048.05c.167.255.407.623.608.9.444.562.554.724 1.12 1.29.002.002.02-.004.024 0l.146.12c.02.022.051.028.073.05l.024.048c.006.006.018-.003.024 0 .03.018.064.04.098.049.006.027.02.033.146.122a.131.131 0 00.073.024l.048.073c.01.012.01.018.025.024l.097.049.024.024c.006.01.015.018.025.025.042.027.097.033.146.048l.024.025c.006.024.03.036.049.048.009.01.018.021.024.024.015.01.027.019.049.025l.073.048c.012.007.036.025.048.025h.049l.024.024h.049c.009.018.03.04.049.049a8.734 8.734 0 01-6.789-8.346zm17.421.536c-.003.03.003.067 0 .097l-.024.024c-.04.028-.082.046-.122.073l-.024-.024v-.049c.009-.003.018-.021.024-.024.006-.003.021.003.024 0zm-4.185 1.727a.253.253 0 00-.219.195c-.018.082.006.149.073.194.037.025.076.049.122.049a.267.267 0 00.243-.195.188.188 0 00-.024-.17c-.037-.052-.094-.073-.17-.073H14.5zm3.869.049a8.67 8.67 0 01-.754 1.825c-.013.009-.003.012-.073.097.012-.049-.028-.085-.05-.097-.005-.003-.017-.022-.023-.025-.025-.006-.05 0-.073 0h-.025l.025-.048c.012-.025.012-.046.024-.073l.024-.05c.006-.008.025-.011.025-.023v-.05l.097-.315.024-.098.098-.17.048-.049c.006-.006.022-.015.025-.024.033-.08.036-.128.048-.17l.098-.17.073-.074c.012-.006.015-.012.024-.024l.292-.438zm-1.12 2.117c.019.012.031-.004.05 0 .005.003.018 0 .024 0 .012-.004.04.009.048 0-.036.045-.097.085-.146.146l-.121.073z" fill="#fff"/></svg>