<svg height="24" width="24" xmlns="http://www.w3.org/2000/svg"><g fill="none" fill-rule="evenodd"><path d="M22 2C16 2 11.668 4 9.003 8 4.334 7.333 2 9.333 2 14h4c.003 1.335.337 2.336 1.001 3.002S8.664 18 9.995 18v4c4.67 0 6.673-2.333 6.009-6.998C20.001 12.334 22 8 22 2z" stroke="#fff" stroke-linejoin="round" stroke-width="1.5"/><g fill="#fff"><circle cx="15" cy="9" r="2"/><path d="M6 20.664C6 19.559 4.448 18 3.343 18c-.64 0-1.062 1.008-1.266 3.025l-.055.635L2 22l.665-.047C4.888 21.766 6 21.336 6 20.663z"/></g></g></svg>