<svg height="24" width="24" xmlns="http://www.w3.org/2000/svg"><g fill="none" fill-rule="evenodd"><path d="M2 12c0 7.5 2.5 10 10 10s10-2.5 10-10S19.5 2 12 2 2 4.5 2 12z" stroke="#fff" stroke-linecap="round" stroke-linejoin="round" stroke-width="1.5"/><path d="M8.765 16.117c2.085 0 3.398-1.396 3.398-3.638 0-2.246-1.313-3.647-3.398-3.647-2.09 0-3.399 1.401-3.399 3.647 0 2.242 1.309 3.638 3.399 3.638zm0-1.23c-1.158 0-1.895-.933-1.895-2.408 0-1.479.742-2.416 1.895-2.416s1.89.937 1.89 2.416c0 1.475-.738 2.408-1.89 2.408zm6.923 1.23c1.758 0 2.837-.869 2.837-2.246 0-1.07-.644-1.67-2.138-1.968l-.742-.151c-.835-.166-1.172-.435-1.172-.87 0-.517.483-.859 1.21-.859.606 0 1.06.22 1.295.752.166.303.37.435.703.435.376 0 .63-.24.63-.59 0-.128-.02-.23-.054-.328-.313-.918-1.284-1.46-2.573-1.46-1.568 0-2.69.855-2.69 2.144 0 1.05.688 1.723 2.094 2.002l.747.146c.884.18 1.216.444 1.216.908 0 .518-.537.899-1.328.899-.674 0-1.226-.244-1.455-.782-.176-.312-.376-.43-.68-.43-.38 0-.649.26-.649.65 0 .132.03.269.079.396.283.771 1.215 1.352 2.67 1.352z" fill="#fff" fill-rule="nonzero"/></g></svg>